<svg width="446" height="152" viewBox="0 0 446 152" fill="none" xmlns="http://www.w3.org/2000/svg">
<path d="M172.747 40.858H187.158L171.454 108.445H146.109L130.405 40.858H144.817L156.546 96.5178H161.018L172.747 40.858Z" fill="white"/>
<path d="M200.899 89.2621C200.965 92.3102 201.76 94.53 203.284 95.9215C204.874 97.2467 207.127 97.9093 210.043 97.9093C216.205 97.9093 221.705 97.7105 226.542 97.313L229.325 97.0148L229.524 106.855C221.904 108.71 215.012 109.638 208.85 109.638C201.363 109.638 195.929 107.65 192.55 103.674C189.17 99.6984 187.481 93.2379 187.481 84.2925C187.481 66.4681 194.803 57.5559 209.446 57.5559C223.891 57.5559 231.114 65.0435 231.114 80.0186L230.12 89.2621H200.899ZM217.994 79.1241C217.994 75.1484 217.365 72.3985 216.106 70.8745C214.847 69.2842 212.627 68.4891 209.446 68.4891C206.332 68.4891 204.112 69.3174 202.787 70.9739C201.528 72.5642 200.866 75.2809 200.799 79.1241H217.994Z" fill="white"/>
<path d="M238.645 108.445V58.7486H251.864V64.0164C257.43 60.7034 262.731 58.5498 267.767 57.5559V70.9739C262.399 72.1004 257.794 73.26 253.951 74.4527L251.963 75.1484V108.445H238.645Z" fill="white"/>
<path d="M301.169 70.0794H288.944V90.4549C288.944 92.4427 288.977 93.8673 289.044 94.7287C289.176 95.5239 289.541 96.2196 290.137 96.816C290.8 97.4123 291.793 97.7105 293.119 97.7105L300.673 97.5117L301.269 108.147C296.829 109.141 293.45 109.638 291.131 109.638C285.167 109.638 281.092 108.312 278.906 105.662C276.719 102.945 275.626 97.9756 275.626 90.753V70.0794H269.761V58.7486H275.626V44.9331H288.944V58.7486H301.169V70.0794Z" fill="white"/>
<path d="M307.854 108.445V58.7486H321.173V108.445H307.854ZM307.854 52.3875V38.8701H321.173V52.3875H307.854Z" fill="white"/>
<path d="M376.516 114.607C376.516 120.306 374.329 124.513 369.956 127.23C365.583 129.947 359.652 131.305 352.165 131.305C344.744 131.305 339.012 130.311 334.97 128.323C330.994 126.336 329.006 122.724 329.006 117.49C329.006 113.315 331.392 109.373 336.163 105.662C333.711 104.005 332.485 101.487 332.485 98.1081C332.485 96.7829 333.479 94.5962 335.467 91.5482L336.361 90.1567C331.856 86.9099 329.603 82.139 329.603 75.8442C329.603 69.483 331.491 64.8778 335.268 62.0286C339.111 59.1793 344.18 57.7547 350.475 57.7547C353.324 57.7547 356.141 58.086 358.924 58.7486L360.514 59.0468L376.516 58.5498V69.1849L369.062 68.5885C370.519 70.8414 371.248 73.0943 371.248 75.3472C371.248 81.9734 369.559 86.5454 366.179 89.0634C362.8 91.5813 357.499 92.8403 350.276 92.8403C348.752 92.8403 347.394 92.7078 346.201 92.4427C345.539 94.1655 345.207 95.5901 345.207 96.7166C345.207 97.7768 345.771 98.5057 346.897 98.9032C348.023 99.3008 350.674 99.5327 354.848 99.599C363.197 99.6652 368.896 100.792 371.944 102.978C374.992 105.099 376.516 108.975 376.516 114.607ZM342.126 116.098C342.126 118.947 345.605 120.372 352.562 120.372C359.586 120.372 363.098 118.715 363.098 115.402C363.098 113.613 362.502 112.454 361.309 111.924C360.116 111.46 357.598 111.195 353.755 111.129L344.81 110.433C343.021 112.222 342.126 114.11 342.126 116.098ZM342.921 75.4466C342.921 80.2837 345.439 82.7022 350.475 82.7022C355.577 82.7022 358.128 80.2837 358.128 75.4466C358.128 70.5432 355.577 68.0915 350.475 68.0915C345.439 68.0915 342.921 70.5432 342.921 75.4466Z" fill="white"/>
<path d="M385.28 64.414C388.792 59.8419 394.656 57.5559 402.873 57.5559C411.089 57.5559 416.954 59.8419 420.465 64.414C423.977 68.9198 425.733 75.2809 425.733 83.4974C425.733 100.924 418.113 109.638 402.873 109.638C387.633 109.638 380.013 100.924 380.013 83.4974C380.013 75.2809 381.769 68.9198 385.28 64.414ZM395.518 94.7287C396.909 97.1142 399.361 98.3069 402.873 98.3069C406.385 98.3069 408.803 97.1142 410.129 94.7287C411.52 92.3433 412.216 88.5995 412.216 83.4974C412.216 78.3952 411.52 74.6846 410.129 72.3654C408.803 70.0463 406.385 68.8867 402.873 68.8867C399.361 68.8867 396.909 70.0463 395.518 72.3654C394.193 74.6846 393.53 78.3952 393.53 83.4974C393.53 88.5995 394.193 92.3433 395.518 94.7287Z" fill="white"/>
<path fill-rule="evenodd" clip-rule="evenodd" d="M79.8884 37.0672C73.9365 34.6018 67.4972 33.5387 61.0688 33.9601C54.6403 34.3814 48.3949 36.2759 42.8157 39.4971L37.1865 42.7471L30.6865 31.4887L36.3157 28.2387C43.6218 24.0206 51.8003 21.5396 60.2185 20.9879C68.6368 20.4361 77.0691 21.8283 84.8633 25.0567C92.6574 28.2852 99.6044 33.2633 105.167 39.6061C110.729 45.9489 114.758 53.4862 116.942 61.6351C119.125 69.7839 119.405 78.3259 117.759 86.6001C116.113 94.8743 112.586 102.659 107.45 109.352C102.314 116.045 95.7079 121.467 88.1416 125.198C80.5753 128.929 70.8159 130.87 63.8157 130.87C56.8154 130.87 52.7279 129.82 47.36 127.597C42.143 125.436 37.4028 122.269 33.4098 118.276C29.4169 114.283 26.2496 109.543 24.0886 104.326C21.9277 99.1085 20.8154 93.517 20.8154 87.8701C20.8154 82.2233 21.9277 76.6317 24.0886 71.4147C26.2496 66.1977 29.4169 61.4574 33.4098 57.4645C37.4028 53.4716 42.143 50.3042 47.36 48.1433C52.577 45.9823 58.1686 44.8701 63.8154 44.8701C69.4623 44.8701 75.0538 45.9823 80.2708 48.1433C85.4878 50.3043 90.2281 53.4716 94.221 57.4645C98.2139 61.4575 101.381 66.1977 103.542 71.4147C104.472 73.6588 105.207 75.9721 105.744 78.3294C106.006 73.8544 105.551 69.3536 104.385 64.9997C102.717 58.777 99.6407 53.0212 95.393 48.1776C91.1453 43.334 85.8403 39.5325 79.8884 37.0672ZM37.8528 102.901C38.5901 88.9256 50.1559 77.8203 64.3154 77.8203C77.9276 77.8203 89.1427 88.0836 90.6445 101.294C90.9628 100.658 91.2588 100.01 91.5318 99.3506C93.0395 95.7109 93.8154 91.8098 93.8154 87.8701C93.8154 83.9305 93.0395 80.0294 91.5318 76.3896C90.0242 72.7499 87.8144 69.4427 85.0286 66.6569C82.2429 63.8712 78.9357 61.6614 75.2959 60.1537C71.6562 58.6461 67.7551 57.8701 63.8154 57.8701C59.8758 57.8701 55.9747 58.6461 52.3349 60.1537C48.6952 61.6614 45.388 63.8712 42.6022 66.6569C39.8165 69.4427 37.6067 72.7498 36.099 76.3896C34.5914 80.0294 33.8154 83.9305 33.8154 87.8701C33.8154 91.8098 34.5914 95.7109 36.099 99.3506C36.6059 100.574 37.192 101.76 37.8528 102.901ZM77.8154 104.32C77.8154 111.776 71.7713 117.82 64.3154 117.82C56.8596 117.82 50.8154 111.776 50.8154 104.32C50.8154 96.8645 56.8596 90.8203 64.3154 90.8203C71.7713 90.8203 77.8154 96.8645 77.8154 104.32Z" fill="white"/>
</svg>
